<svg xmlns="http://www.w3.org/2000/svg" xmlns:xlink="http://www.w3.org/1999/xlink" id="Vrstva_1" x="0" y="0" version="1.1" viewBox="0 0 114.5 126.2" xml:space="preserve" style="enable-background:new 0 0 114.5 126.2"><style type="text/css">.st0{fill:#131480}</style><g><polygon points="50.6 59.7 72.9 77.3 58.1 40.8" class="st0"/><path d="M57.2,5.7C25.6,5.7,0,31.4,0,62.9c0,31.6,25.7,57.2,57.2,57.2c31.6,0,57.3-25.7,57.3-57.2 C114.4,31.4,88.8,5.7,57.2,5.7z M80.6,91.5c-1.1,0-2-0.4-3.2-1.4L48,66.2L38.1,91h-8.6l25-60.2c0.7-1.6,2.1-2.4,3.7-2.4 c1.6,0,2.9,0.8,3.6,2.4l22.7,54.9c0.3,0.7,0.4,1.3,0.4,1.7C84.9,89.8,82.9,91.5,80.6,91.5z" class="st0"/></g></svg>