<svg xmlns="http://www.w3.org/2000/svg" xmlns:xlink="http://www.w3.org/1999/xlink" id="Vrstva_1" x="0" y="0" version="1.1" viewBox="0 0 114.5 126.2" xml:space="preserve" style="enable-background:new 0 0 114.5 126.2"><style type="text/css">.st0{fill:#131480}</style><path d="M53.4,82.1H2.8C0.9,76,0,69.7,0,63.3c0-6.5,0.9-12.9,2.8-18.8h83.1c10.3,0,18.8,8.3,18.8,18.7v0.1	c0,10.3-8.3,18.7-18.6,18.8l0,0C86.1,82.1,53.4,82.1,53.4,82.1z M51,88.3h-46c4.8,11.1,12.9,20.6,23,27.2	c10.2,6.7,22.1,10.4,34.4,10.3c21.7,0,40.8-11.1,52-27.8c-6-6.1-14.2-9.7-22.8-9.8L51,88.3z M91.7,38.4c8.9,0,17-3.8,22.8-9.7	C95.2-0.2,56.2-7.8,27.5,11.5c-9.9,6.6-17.7,16-22.5,26.8h45.8L91.7,38.4z" class="st0"/></svg>