<svg xmlns="http://www.w3.org/2000/svg" xmlns:xlink="http://www.w3.org/1999/xlink" id="Vrstva_1" x="0" y="0" version="1.1" viewBox="0 0 114.5 126.2" xml:space="preserve" style="enable-background:new 0 0 114.5 126.2"><style type="text/css">.st0{fill:#131480}</style><path d="M23.6,11.4c-0.7-2-3.5-2-4.2,0L6.6,50.5h29.5C36.1,50.5,23.6,11.4,23.6,11.4z M0.2,70.2c-0.6,1.8,0,3.8,1.6,5	l55.5,41.2L6.6,50.7L0.2,70.2z M36.1,50.5l21,65.7l21-65.7H36.1z M114.4,70.2l-6.4-19.7l-50.6,65.7L112.8,75	C114.2,73.9,114.8,72,114.4,70.2z M95.2,11.4c-0.7-2-3.5-2-4.2,0L78.3,50.5h29.5L95.2,11.4z" class="st0"/></svg>