<svg xmlns="http://www.w3.org/2000/svg" id="Layer_1" data-name="Layer 1" viewBox="0 0 100 100"><defs><style>.cls-1{fill:#c8da52}.cls-2{fill:#995f5b}</style></defs><title/><polygon points="87.77 58.62 73.19 58.62 65.91 71.24 73.19 83.86 87.77 83.86 95.05 71.24 87.77 58.62" class="cls-1"/><path d="M39.87,38.21a1,1,0,0,0-1,1V92.59a1,1,0,0,0,2,0V39.21A1,1,0,0,0,39.87,38.21Z" class="cls-2"/><path d="M80.63,73.15a1,1,0,0,0-1,1V92.59a1,1,0,0,0,2,0V74.15A1,1,0,0,0,80.63,73.15Z" class="cls-2"/><polygon points="30.37 37.27 15.24 37.27 7.67 50.37 15.24 63.47 30.37 63.47 37.93 50.37 30.37 37.27" class="cls-1"/><polygon points="46.87 10.09 31.74 10.09 24.17 23.19 31.74 36.3 46.87 36.3 54.44 23.19 46.87 10.09" class="cls-1"/><polygon points="64.34 37.27 49.21 37.27 41.65 50.37 49.21 63.47 64.34 63.47 71.91 50.37 64.34 37.27" class="cls-1"/></svg>